<?xml version="1.0" ?>
<!-- Uploaded to: SVG Repo, www.svgrepo.com, Generator: SVG Repo Mixer Tools -->
<svg width="800px" height="800px" viewBox="0 0 32 32" xmlns="http://www.w3.org/2000/svg">
<defs>
<style>.cls-1{fill:#005792;}</style>
</defs>
<title/>
<g id="Chat">
<path class="cls-1" d="M28,15.5A11.76,11.76,0,0,1,16,27H13.4a14.39,14.39,0,0,1-1-1.1l.73-.25c6.52-2.34,11.05-7.51,11.05-13.53a11.72,11.72,0,0,0-.62-3.79h0a11.57,11.57,0,0,0-1.19-2.55A11.4,11.4,0,0,1,28,15.5Z"/>
<path d="M22.39,5.77A12.33,12.33,0,0,0,16,4,11.76,11.76,0,0,0,4,15.5,11.17,11.17,0,0,0,6.87,23L4.19,25.85a.67.67,0,0,0-.14.73.63.63,0,0,0,.58.42H16A11.76,11.76,0,0,0,28,15.5,11.4,11.4,0,0,0,22.39,5.77ZM16,25.65H6.16l2.05-2.21a.69.69,0,0,0,0-1,9.84,9.84,0,0,1-2.93-7C5.26,9.9,10.08,5.35,16,5.35a11,11,0,0,1,7.58,3h0a9.82,9.82,0,0,1,3.15,7.17C26.74,21.1,21.92,25.65,16,25.65Z"/>
<ellipse cx="10.32" cy="14.82" rx="1.26" ry="1.35"/>
<ellipse cx="15.37" cy="14.82" rx="1.26" ry="1.35"/>
<ellipse cx="20.42" cy="14.82" rx="1.26" ry="1.35"/>
</g>
</svg>